<?xml version="1.0" standalone="no"?>
<!DOCTYPE svg PUBLIC "-//W3C//DTD SVG 1.1//EN" "http://www.w3.org/Graphics/SVG/1.1/DTD/svg11.dtd" >
<svg xmlns="http://www.w3.org/2000/svg" xmlns:xlink="http://www.w3.org/1999/xlink" version="1.1">
<metadata></metadata>
<defs>
<font id="aprilfoolalregular" horiz-adv-x="492" >
<font-face units-per-em="1000" ascent="800" descent="-200" />
<missing-glyph horiz-adv-x="219" />
<glyph horiz-adv-x="0" />
<glyph unicode="&#xd;" horiz-adv-x="219" />
<glyph unicode=" "  horiz-adv-x="219" />
<glyph unicode="&#x09;" horiz-adv-x="219" />
<glyph unicode="&#xa0;" horiz-adv-x="219" />
<glyph unicode="!" horiz-adv-x="217" d="M178 642l-18 -442q-2 -11 -11 -10l-91 6q-10 2 -10 11l9 449q0 9 10 9l101 -12q10 -1 10 -11zM158 123l-4 -110q-2 -10 -11 -9l-94 5q-10 1 -10 10l3 106q0 10 10 10l96 -2q10 0 10 -10z" />
<glyph unicode="&#x22;" horiz-adv-x="379" d="M333 670l-8 -225q-2 -10 -11 -10l-80 -2q-10 -2 -10 9l-3 209q0 9 10 11l93 16q4 1 7 -1.5t2 -6.5zM166 442q1 -9 -9 -10l-77 -5q-10 -2 -11 9l-23 212q-2 9 8 10l90 5q9 1 10 -9z" />
<glyph unicode="#" horiz-adv-x="601" d="M569 226q2 -11 -8 -11l-108 -11q-13 -1 -13 -14l3 -187q0 -10 -9 -10h-67q-9 0 -11 10l-3 178q0 12 -13 12l-87 -9q-13 -1 -12 -14l9 -133q2 -10 -9 -12l-74 -16q-8 -2 -10 8l-8 144q-1 12 -14 11l-86 -9q-9 0 -11 9l-3 61q0 10 9 11l86 11q13 2 12 14l-7 127 q-1 13 -14 12l-72 -6q-10 -1 -11 9l-6 81q-1 10 10 11l73 6q13 1 12 14l-5 89q-1 11 9 11l67 6q9 2 11 -8l6 -90q1 -13 14 -12l104 9q13 1 13 14l-2 100q0 10 9 10h71q10 0 10 -10l1 -92q0 -12 13 -12l75 7q10 0 10 -9l2 -88q0 -9 -10 -10l-75 -6q-13 -1 -13 -14l2 -110 q0 -14 13 -12l89 12q9 1 12 -9zM351 296l-3 116q0 13 -13 12l-99 -8q-13 -1 -12 -14l9 -121q1 -13 13 -11l92 12q13 2 13 14z" />
<glyph unicode="$" horiz-adv-x="435" d="M409 223q5 -78 -46 -118q-31 -24 -80 -32q-12 -2 -13 -15q-4 -82 -15 -159q-2 -11 -12 -8l-66 22q-10 3 -9 13q3 46 6 133q1 13 -12 15q-35 4 -109 23q-9 4 -7 13l16 71q3 9 13 5q21 -8 89 -25q13 -4 13 11.5t1 52.5v57q0 12 -13 14q-85 13 -116 53q-23 30 -23 79 q0 22 4 47q19 108 90 140q10 5 29 9q13 3 11 16q-5 36 -11 69q-2 11 8 11l61 10q9 1 11 -8q2 -17 12 -86q2 -12 14 -15q59 -14 129 -52q9 -6 4 -14l-22 -58q-3 -9 -13 -3q-21 11 -88 35q-5 1 -8.5 -2t-2.5 -8q8 -72 11 -137q1 -13 13 -15q124 -23 131 -144zM176 395 q-1 42 -5 127q-2 14 -14 8l-2 -1q-34 -17 -39 -70q-6 -57 48 -73q5 -1 8.5 1.5t3.5 7.5zM322 227q5 40 -39 53q-5 2 -9 -1t-4 -8q2 -76 2 -97q0 -13 12 -8q2 1 4 3q29 16 34 58z" />
<glyph unicode="%" horiz-adv-x="707" d="M671 64q-11 -32 -44.5 -49.5t-75.5 -17.5q-46 0 -82 19q-41 21 -55 58q-7 18 -7 39q0 68 61 130.5t113 55.5q51 -7 79 -52q25 -40 25 -100q0 -43 -14 -83zM566 586l-358 -586q-4 -11 -13 -4l-63 32q-10 5 -4 13l361 590q4 10 13 4l60 -36q10 -4 4 -13zM147 335 q-44 0 -76 27q-35 29 -46 82q-3 16 -3 33q0 73 61 129q53 47 93 44q64 -5 96 -45q29 -35 29 -89q0 -72 -43.5 -126.5t-110.5 -54.5zM613 103q14 42 14 64q0 45 -52 52q-34 5 -58.5 -24.5t-24.5 -71.5q0 -12 2 -23q8 -41 50 -41q22 0 42.5 12.5t26.5 31.5zM225 463 q12 23 12 43q0 24 -20 42.5t-45 18.5q-27 0 -51.5 -27.5t-24.5 -59.5q0 -16 7 -29q20 -36 55 -36q42 0 67 48z" />
<glyph unicode="&#x26;" horiz-adv-x="567" d="M542 251l-15 -41q-3 -9 -13 -7l-77 19q-13 3 -33 -19q-14 -17 -27 -33q-8 -9 2 -17q56 -42 118 -82q8 -5 3 -14l-20 -35q-4 -9 -13 -4q-56 30 -135 88q-11 8 -20 -1q-117 -109 -192 -109q-59 0 -87 69q-7 18 -7 36q0 64 110 176q9 9 2 20q-60 86 -60 172q0 87 63 140 q55 46 124 46q58 0 89 -42q28 -38 28 -99q0 -85 -53 -146q-24 -27 -82 -80q-11 -7 -1 -18q28 -31 60 -58q9 -8 17 2q21 28 53 79q3 9 14 6l146 -37q8 -2 6 -11zM249 389q52 55 52 110q0 33 -17.5 54t-43.5 21q-33 0 -61.5 -36.5t-28.5 -81.5q0 -51 37 -111q7 -11 16 -2z M263 144q9 9 -1 17q-37 32 -67 64q-9 10 -18 1q-75 -70 -75 -108q0 -19 14 -31.5t32 -12.5q46 0 115 70z" />
<glyph unicode="'" horiz-adv-x="152" d="M130 455q0 -9 -9 -9h-84q-10 0 -10 9l-5 190q0 9 9 11l81 7q9 1 11 -9z" />
<glyph unicode="(" horiz-adv-x="268" d="M232 611q-87 -126 -87 -285q0 -139 77 -269q5 -7 -4 -12l-84 -42q-9 -4 -14 5q-84 143 -84 315q0 178 106 331q6 8 15 4l71 -34q9 -6 4 -13z" />
<glyph unicode=")" horiz-adv-x="248" d="M146 12q-4 -10 -13 -7l-75 14q-11 2 -7 11q50 171 50 324q0 168 -66 267q-5 8 3 12l74 28q8 3 15 -5q86 -135 86 -328q0 -157 -67 -316z" />
<glyph unicode="*" horiz-adv-x="458" d="M427 332l-36 -45q-7 -8 -15 -3l-104 66q-4 2 -7 0q-4 -2 -4 -6l4 -142q-2 -5 -9 -9l-71 5q-11 1 -9 11l1 121q0 4 -3 5t-6 -1l-69 -64q-7 -6 -15 -1l-39 30q-7 5 -1 13l106 100q9 9 -2 16l-112 71q-9 6 -5 14l15 34q3 8 13 4l109 -62q10 -6 12 7l2 156q0 9 10 9l51 -2 q10 0 10 -10l3 -122q0 -4 4 -5q3 -2 6 1l102 97q8 6 14 0l40 -35q8 -7 0 -14l-141 -131q-9 -9 2 -15l141 -80q8 -5 3 -13z" />
<glyph unicode="+" horiz-adv-x="578" d="M548 329q1 -10 -9 -10l-191 -9q-13 -1 -13 -13l-5 -251q0 -10 -10 -10l-78 -1q-5 3 -9 10l8 248q0 5 -3.5 9t-8.5 3l-189 -8q-10 0 -10 10v69q0 9 10 10l192 14q13 1 13 14l7 216q0 10 10 10h69q10 0 10 -10l-4 -209q0 -5 4 -8.5t9 -3.5l180 13q9 1 11 -9z" />
<glyph unicode="," horiz-adv-x="234" d="M172 -101q-4 -9 -14 -8l-28 4q-11 2 -7 10q6 22 6 46q0 43 -19 51q-80 31 -80 93q0 13 3 26q14 57 70 57q44 0 68 -31q33 -42 33 -106t-32 -142z" />
<glyph unicode="-" d="M462 299q0 -10 -10 -10l-407 -16q-10 0 -11 10l-4 73q-2 10 9 10l413 16q10 0 10 -9v-74z" />
<glyph unicode="." horiz-adv-x="229" d="M200 92q0 -39 -25 -66.5t-60 -27.5q-36 0 -61 27.5t-25 66.5q0 40 25 67.5t61 27.5q35 0 60 -27.5t25 -67.5z" />
<glyph unicode="/" horiz-adv-x="438" d="M411 609l-300 -594q-5 -7 -13 -3l-67 38q-7 6 -4 14l313 590q4 8 13 3l54 -34q8 -5 4 -14z" />
<glyph unicode="0" horiz-adv-x="490" d="M442 489q17 -40 17 -106q0 -95 -32 -201.5t-75 -151.5q-32 -34 -89 -34q-70 0 -134 48q-69 52 -88 134q-11 45 -11 101q0 115 39.5 225t92.5 137q41 21 81 21q64 0 120 -53q47 -46 79 -120zM352 358q0 195 -111 195q-17 0 -37 -5q-35 -10 -61.5 -83.5t-26.5 -158.5 q0 -60 15 -107q31 -100 100 -100q58 0 89.5 71t31.5 188z" />
<glyph unicode="1" horiz-adv-x="306" d="M274 16q0 -9 -10 -11l-85 -5q-9 -1 -9 9l-2 521q0 4 -4 7q-4 2 -8 0l-91 -44q-9 -4 -11 5l-22 82q-3 10 6 14l124 63q7 3 12 3l85 -6q10 -1 10 -10z" />
<glyph unicode="2" horiz-adv-x="537" d="M507 87l-1 -76q0 -10 -10 -10l-403 11q-10 0 -10 10l-1 74q0 11 8 15q123 67 200 163q74 92 74 169q0 58 -44 89q-29 21 -58 21q-47 0 -91 -54q-27 -33 -46 -77q-4 -8 -13 -5l-75 28q-9 3 -7 13q23 71 63 123q70 90 166 83q108 -8 165 -80q49 -61 49 -147q0 -40 -11 -75 q-45 -144 -209 -251q-3 -2 -2 -5q1 -4 5 -4l241 -5q10 0 10 -10z" />
<glyph unicode="3" horiz-adv-x="476" d="M367 622q80 -58 80 -133q0 -80 -80 -158q-9 -9 0 -17q63 -59 63 -148q0 -63 -35 -108q-38 -48 -104 -55q-15 -2 -29 -2q-127 0 -220 100q-7 8 -1 15l49 60q5 7 13 1q30 -31 70 -53q46 -26 81 -26q56 0 68 67q2 12 2 22q0 93 -140 90q-8 0 -10 9l-1 65q-2 10 9 10 q34 0 70.5 13t60 41t23.5 59q0 50 -63 76q-19 8 -36 8q-70 0 -110 -108q-2 -9 -12 -6l-81 27q-9 3 -5 13q37 93 98 145q107 90 240 -7z" />
<glyph unicode="4" horiz-adv-x="587" d="M557 169q0 -10 -10 -10l-136 -6q-13 -1 -13 -13l-1 -124q0 -10 -10 -10l-81 1q-10 0 -10 10v119q0 13 -13 12l-238 -10q-10 0 -11 10l-4 69q0 8 3 14l243 416q5 8 14 8l101 -2q10 0 10 -10l-2 -382q0 -5 3.5 -9t8.5 -4l136 2q10 2 10 -9v-72zM296 259v208q0 4 -4 6 q-4 1 -6 -3l-127 -215q-2 -3 0 -7t6 -3l118 1q13 0 13 13z" />
<glyph unicode="5" horiz-adv-x="467" d="M438 225q3 -225 -210 -225q-92 0 -193 38q-9 3 -6 13l23 71q2 10 11 5q61 -32 139 -32q137 0 126 124q-10 114 -143 114q-48 0 -105 -15q-8 -2 -10 7l-12 302q0 10 10 10l292 28q9 0 11 -9l8 -85q2 -9 -8 -10l-201 -14q-13 -1 -12 -13l8 -103q1 -13 14 -11q28 5 57 5 q198 0 201 -200z" />
<glyph unicode="6" horiz-adv-x="485" d="M456 232q3 -83 -48 -153q-58 -81 -155 -81q-31 0 -64 9q-79 21 -121 92q-39 67 -39 166q0 95 37 198.5t104 188.5q6 7 14 2l60 -48q7 -6 2 -13q-53 -71 -84 -165q-1 -3 1.5 -5t5.5 -1q38 17 79 17q10 0 21 -1q89 -9 138 -67q46 -54 49 -139zM375 232q0 59 -38 89 q-33 26 -87 26q-55 0 -103 -25q-11 -6 -14 -19q-4 -38 -5 -61q-4 -75 29 -115q29 -35 78 -35q53 0 96.5 40t43.5 100z" />
<glyph unicode="7" horiz-adv-x="456" d="M417 649q12 -79 12 -170q0 -230 -66 -470q-4 -9 -12 -8l-100 16q-10 2 -6 11q78 204 68 508q-2 13 -14 12l-138 -11q-13 -1 -12 -13l8 -135q2 -11 -9 -11l-83 -11q-11 0 -11 9l-27 247q-2 9 9 11l369 24q11 1 12 -9z" />
<glyph unicode="8" horiz-adv-x="413" d="M383 492q-3 -106 -117 -187q-10 -7 0 -15q88 -69 88 -149q0 -87 -95 -134q-30 -15 -66 -15q-52 0 -93 28q-47 31 -63 86q-7 24 -7 47q0 88 92 153q11 6 3 16q-82 107 -85 193q-2 71 46 119q45 45 108 47q75 3 126 -36q66 -50 63 -153zM300 503q0 41 -29 71q-24 25 -51 30 q-10 2 -20 2q-81 0 -81 -79q0 -69 74 -160q9 -11 19 -3q88 64 88 139zM256 109q7 14 7 29q0 47 -69 98q-9 7 -21 0q-67 -51 -67 -98q0 -10 3 -19q18 -49 76 -49q52 0 71 39z" />
<glyph unicode="9" horiz-adv-x="451" d="M422 410q0 -172 -53 -407q-2 -9 -12 -9l-70 2q-10 2 -7 10q19 71 37 235q0 4 -3 6.5t-7 1.5q-41 -15 -96 -15q-102 0 -142.5 54t-40.5 129q0 94 63 174q58 74 152 74q81 0 130 -51.5t49 -203.5zM322 363q17 47 17 87q0 60 -37 95q-31 30 -71 30q-16 0 -28 -6 q-34 -17 -61 -56q-30 -45 -30 -92q0 -30 14 -58q28 -54 94 -54q34 0 64 15.5t38 38.5z" />
<glyph unicode=":" horiz-adv-x="252" d="M175 396q-15 -21 -41 -21q-31 0 -59.5 25t-28.5 52q0 33 18 61q21 33 55 33q26 0 56 -21q25 -17 25 -57q0 -37 -25 -72zM188 152q-24 -36 -61 -36q-29 0 -53.5 19.5t-26.5 43.5q-5 45 15 78q24 42 81 42q20 0 41.5 -27t21.5 -62q0 -30 -18 -58z" />
<glyph unicode=";" horiz-adv-x="286" d="M177 540q37 -17 37 -72q0 -59 -45 -82q-16 -8 -34 -8q-33 0 -58.5 26t-25.5 59q0 36 28 60t64 24q19 0 34 -7zM236 196q0 -106 -111 -216q-6 -6 -15 -1l-29 22q-7 8 -1 14q31 38 43 75q4 12 -7 20q-58 45 -58 94q0 19 10 37q31 55 83 55q41 0 64 -31q21 -27 21 -69z" />
<glyph unicode="&#x3c;" horiz-adv-x="456" d="M419 590q5 -8 -2 -15l-282 -263q-8 -10 1 -17l269 -210q8 -5 3 -14l-38 -70q-6 -8 -13 -2l-288 234q-5 4 -8 12l-24 71q-3 9 4 16l324 328q7 7 12 -1z" />
<glyph unicode="=" horiz-adv-x="510" d="M472 372q2 -10 -9 -10l-409 -4q-10 0 -10 10l-7 74q-1 10 9 10l415 16q10 0 10 -10zM479 169q1 -4 -2 -7t-7 -3l-428 4q-10 0 -10 9l-1 77q-1 4 2 7t7 3l428 -4q10 0 10 -9z" />
<glyph unicode="&#x3e;" horiz-adv-x="431" d="M401 446l-4 -122q0 -9 -7 -16l-284 -301q-6 -8 -11 1l-45 79q-4 8 2 16l267 274q8 8 -3 15l-279 166q-8 5 -7 15l11 78q1 10 10 5l342 -195q8 -5 8 -15z" />
<glyph unicode="?" horiz-adv-x="445" d="M386 576q30 -49 30 -92q0 -54 -49 -107l-88 -80q-49 -47 -49 -105q0 -11 2 -20q0 -10 -8 -10l-90 3q-10 0 -10 10q-2 55 10 90q21 64 91 112q75 51 75 111q0 49 -48 75q-25 14 -45 14q-69 0 -78 -133q-1 -10 -10 -10l-79 -3q-10 0 -10 10q-5 109 54 173q54 57 134 57 q110 0 168 -95zM238 16q0 -11 -9 -11l-98 -5q-10 -1 -10 9l-1 89q-2 10 9 10l97 3q10 0 10 -9z" />
<glyph unicode="@" horiz-adv-x="728" d="M646 171q-86 -190 -253 -190q-62 0 -133 26q-13 5 -79 36q-56 26 -98 100q-49 84 -49 185q0 75 28 149q76 202 275 202q73 0 153 -30q75 -28 128 -85q76 -82 76 -196q0 -90 -48 -197zM388 461q-27 0 -59.5 -44t-33.5 -84q-1 -30 14.5 -54t37.5 -24q25 0 47 31 q38 52 38 106q0 22 -11 43q-13 26 -33 26zM582 252q28 74 28 134q0 144 -176 210q-32 12 -69 12q-66 0 -122 -36q-64 -40 -93 -114q-21 -54 -21 -117q0 -95 46 -168q52 -82 146 -105q31 -7 58 -7q71 0 120 46q32 30 49 71q4 11 -8 15q-71 23 -83 72q-1 4 -4 4q-3 1 -5 -2 q-46 -77 -111 -77q-37 0 -67.5 25.5t-38.5 61.5q-6 27 -6 52q0 114 102 170q43 24 82 24q40 0 64 -25t24 -72q0 -7 -1 -21t-1 -21q0 -87 71 -137q11 -8 16 5z" />
<glyph unicode="A" horiz-adv-x="567" d="M538 78q4 -9 -5 -13l-67 -38q-9 -4 -13 5l-48 105q-7 13 -18 11l-224 -10q-12 -1 -16 -13l-33 -116q-3 -11 -12 -7l-66 18q-9 3 -7 12l155 617q3 10 12 11l83 7q9 1 14 -8zM352 253l-99 215q-2 4 -5 3q-4 0 -5 -3l-63 -226q-1 -5 2 -8.5t7 -2.5l155 9q12 2 8 13z" />
<glyph unicode="B" horiz-adv-x="490" d="M459 211q-9 -125 -115 -179q-74 -38 -186 -38q-37 0 -72 4q-10 0 -11 11l-45 576q-1 11 9 14q144 68 251 68q102 0 123 -77q12 -43 12 -81q0 -91 -62 -138q-7 -7 2 -11q102 -34 94 -149zM325 535q-13 53 -68 53q-50 0 -115 -37q-10 -6 -9 -20l15 -150q1 -13 15 -11 q57 8 98 29q68 36 68 102q0 16 -4 34zM357 202q-12 89 -106 89q-39 0 -84 -15q-14 -4 -12 -17l4 -169q0 -12 13 -11q67 8 114 28q79 34 71 95z" />
<glyph unicode="C" horiz-adv-x="519" d="M489 90q5 -9 -2 -16q-76 -78 -187 -78q-65 0 -134 31q-136 61 -136 264q0 82 24 167q22 80 57 134q47 73 126 73q55 0 113 -36q55 -33 94 -87q6 -8 -1 -15l-48 -59q-6 -6 -11 1q-55 80 -127 80q-19 0 -37 -6q-35 -11 -56.5 -70t-21.5 -135q0 -92 30 -158q34 -75 97 -86 q16 -3 32 -3q80 0 141 59q7 7 12 -1z" />
<glyph unicode="D" horiz-adv-x="481" d="M452 386q3 -236 -159 -330q-91 -53 -207 -51q-9 0 -11 10l-46 598q-2 9 8 13q89 33 175 33q237 0 240 -273zM356 391q-16 151 -137 151q-41 0 -82 -16q-12 -3 -12 -17l32 -356q1 -12 14 -14q64 -3 111 28q77 49 77 176q0 23 -3 48z" />
<glyph unicode="E" horiz-adv-x="501" d="M472 134l-4 -96q-2 -10 -11 -10l-380 14q-10 0 -10 10q-1 188 -38 540q0 9 9 11l405 32q9 1 11 -9l7 -82q2 -9 -8 -10l-296 -23q-13 -1 -12 -13q4 -39 9 -107q1 -12 14 -11l260 28q9 1 11 -9l4 -86q0 -10 -10 -11l-260 -28q-13 -1 -13 -14q1 -31 3 -108q0 -13 13 -13 l286 5q4 0 7 -3t3 -7z" />
<glyph unicode="F" horiz-adv-x="440" d="M410 575q2 -11 -9 -11l-261 -35q-12 -2 -11 -14q4 -36 8 -134q2 -13 13 -11l228 31q9 1 11 -8l7 -79q1 -10 -9 -11l-234 -35q-12 -3 -12 -15q2 -180 0 -237q0 -10 -10 -10l-78 -4q-5 2 -9 9q5 60 5 147q0 189 -19 439q-1 10 9 11l348 49q11 0 12 -9z" />
<glyph unicode="G" horiz-adv-x="605" d="M576 306q2 -10 -8 -11l-70 -8q-13 -1 -11 -15l36 -275q1 -10 -9 -10l-91 -8q-10 -2 -10 9l-4 37q0 12 -14 12q-33 -4 -65 -4q-228 0 -278 162q-23 73 -23 142q0 210 187 301q55 27 109 27q96 0 168 -72q7 -7 2 -16l-33 -60q-6 -8 -12 -2q-57 47 -119 47q-73 0 -139 -68 q-56 -58 -56 -142q0 -87 56 -152q59 -69 147 -69q24 0 48 5q12 3 11 16l-9 109q-1 13 -14 11l-72 -9q-11 0 -12 9l-11 72q-2 10 8 11l265 32q11 0 11 -9z" />
<glyph unicode="H" horiz-adv-x="605" d="M577 39q1 -10 -9 -10l-87 -9q-9 0 -10 9l-16 260q-1 13 -14 11l-264 -37q-14 -2 -12 -14l12 -220q1 -11 -10 -11l-81 -12q-10 -2 -11 8l-47 602q-1 9 9 11l97 17q9 2 10 -8l13 -241q1 -13 13 -12l265 30q13 1 12 14l-14 219q-1 9 10 10l81 4q9 2 11 -9z" />
<glyph unicode="I" horiz-adv-x="216" d="M168 14q0 -9 -10 -10l-81 -4q-10 -2 -10 9l-19 631q0 11 10 11l76 8q9 0 11 -9z" />
<glyph unicode="J" horiz-adv-x="458" d="M416 645q10 -139 10 -265q0 -185 -24 -274q-28 -103 -143 -103q-59 0 -122 28t-104 73q-7 8 -2 16l48 80q5 9 13 2q94 -81 154 -81q40 0 58 39q22 49 22 171q0 140 -23 309q-1 10 8 10l94 5q10 1 11 -10z" />
<glyph unicode="K" horiz-adv-x="549" d="M520 108q5 -8 -1 -15l-62 -67q-7 -7 -13 1l-219 271q-9 11 -17 1l-45 -52q-8 -10 -8 -22l8 -206q-2 -5 -10 -9l-89 1q-10 0 -10 10l-25 620q0 9 10 11l90 7q10 2 10 -9l10 -249q0 -3 4 -4q3 -1 5 1l223 262q6 7 13 0l62 -63q6 -7 0 -14l-166 -191q-8 -9 0 -19z" />
<glyph unicode="L" horiz-adv-x="484" d="M454 49q0 -9 -9 -10l-400 -33q-10 -1 -10 9l-5 619q0 9 10 10l80 4q10 0 10 -9l19 -505q0 -13 13 -12l273 23q9 1 11 -9z" />
<glyph unicode="M" horiz-adv-x="630" d="M597 37q0 -11 -9 -11l-90 -9q-9 0 -11 9l-29 401q0 4 -4 5t-6 -3l-123 -242q-4 -8 -14 -8h-43q-11 0 -15 8l-111 214q-2 2 -5 2q-5 0 -5 -5v-382q0 -9 -10 -11l-79 -4q-4 0 -7 2.5t-3 7.5l26 592q0 10 10 12l59 12q9 2 14 -7l142 -294q1 -3 5 -3t5 3l127 299q5 9 14 11 l85 21q9 4 11 -7z" />
<glyph unicode="N" horiz-adv-x="592" d="M559 653l-12 -611q0 -11 -10 -11l-105 -10q-10 -1 -15 7l-270 364q-2 3 -6 1q-3 -1 -3 -5l8 -373q0 -9 -10 -9h-75q-10 0 -10 9l-18 564q0 10 9 12l65 12q10 2 16 -6l322 -423q2 -3 6 -2q3 1 3 5l2 467q0 10 10 11l84 7q5 -2 9 -9z" />
<glyph unicode="O" horiz-adv-x="563" d="M530 341q-6 -165 -73 -260q-61 -88 -153 -88q-123 0 -203 121q-71 108 -68 236q4 144 80 238q70 86 156 86q114 0 185 -76q83 -89 76 -257zM424 350q0 105 -37 164q-35 55 -89 55q-84 0 -130 -73q-38 -58 -43 -150q-7 -113 55 -192q57 -73 128 -69q116 7 116 265z" />
<glyph unicode="P" horiz-adv-x="484" d="M454 414q-8 -81 -62.5 -126t-132.5 -45q-40 0 -80 12q-5 1 -8.5 -1.5t-3.5 -7.5q3 -118 -5 -239q-2 -9 -11 -9l-81 8q-10 1 -8 11q16 99 16 216q0 206 -50 401q-3 10 8 12l53 10q9 2 13.5 -6t8.5 -25q5 -12 13 -3q51 55 119 55q15 0 32 -3q181 -35 181 -220q0 -19 -2 -40 zM362 462q-3 125 -108 125q-58 0 -110 -35q-10 -9 -8 -20q18 -94 26 -186q1 -13 14 -15q23 -3 43 -3q146 0 143 134z" />
<glyph unicode="Q" horiz-adv-x="612" d="M583 73l-31 -57q-6 -8 -13 -2l-68 53q-10 8 -18 -1q-66 -73 -178 -73q-14 0 -24 1q-231 29 -222 325q6 179 100 272q72 71 163 71q17 0 31 -3q92 -21 144 -114t52 -241q0 -85 -14 -139q-3 -11 7 -20l68 -58q8 -5 3 -14zM425 272q3 102 -21 181q-36 115 -121 115 q-62 0 -113 -62q-58 -70 -64 -182q-5 -94 40 -159q40 -59 95 -63q68 -5 121 35q10 8 0 16l-97 76q-8 6 -2 14l42 61q6 8 13 2l90 -75q3 -3 7 -1q4 1 5 6q4 16 5 36z" />
<glyph unicode="R" horiz-adv-x="528" d="M498 55q4 -9 -5 -13l-81 -38q-9 -4 -13 5l-106 261q-5 12 -17 10q-71 -14 -137 -14q-13 0 -13 -13l6 -242q0 -10 -10 -11l-74 -5q-10 -2 -10 9l-8 612q0 10 10 13q105 25 203 25q234 0 253 -154q2 -14 2 -26q0 -103 -106 -157q-11 -6 -6 -17zM379 485q-18 70 -127 70 q-55 0 -120 -17q-12 -3 -12 -16l3 -144q0 -13 13 -12q245 16 245 103q0 8 -2 16z" />
<glyph unicode="S" horiz-adv-x="444" d="M413 149q-17 -142 -190 -142q-82 0 -176 29q-9 3 -9 13l2 87q2 10 10 7q85 -19 146 -19q102 0 110 54q5 35 -66 74q-118 65 -136 79q-74 58 -74 136q0 30 11 65q39 122 160 122q88 0 189 -57q10 -4 6 -14l-27 -77q-3 -9 -12 -5q-79 41 -136 41q-67 0 -74 -66 q-5 -53 63 -99l132 -80q72 -55 72 -128q0 -10 -1 -20z" />
<glyph unicode="T" horiz-adv-x="531" d="M499 562q1 -10 -9 -10l-169 -4q-14 0 -12 -13l20 -518q-3 -5 -10 -9l-96 5q-10 1 -10 10l-5 509q0 13 -12 13l-154 -4q-10 0 -10 10v85q0 8 10 10l442 10q9 0 10 -9z" />
<glyph unicode="U" horiz-adv-x="522" d="M476 644q14 -101 14 -209q0 -182 -45 -291q-60 -147 -195 -145q-218 4 -218 364q0 127 26 265q2 10 12 8l83 -13q10 -2 8 -12q-22 -127 -22 -245q0 -256 116 -259q130 -4 130 325q0 96 -11 196q-2 9 8 11l83 13q10 2 11 -8z" />
<glyph unicode="V" horiz-adv-x="569" d="M538 589l-200 -550q-3 -9 -13 -10l-136 -15q-10 0 -12 9l-146 587q-2 9 7 13l76 22q10 4 12 -7l132 -487q2 -3 5 -3q4 -1 5 3l170 471q2 9 12 6l82 -27q9 -3 6 -12z" />
<glyph unicode="W" horiz-adv-x="766" d="M734 642l-159 -631q-2 -9 -12 -9h-62q-10 0 -14 9l-130 330q-1 4 -5 4q-3 0 -5 -4l-124 -288q-4 -9 -13 -9h-63q-9 0 -11 10l-104 535q-2 9 7 12l68 16q10 3 12 -7l71 -353q1 -4 5 -4q4 -1 5 3l99 349q2 9 12 10l52 4q9 1 14 -9l149 -390q1 -4 5 -3q3 0 4 4l97 432 q2 9 12 8l83 -8q11 -2 7 -11z" />
<glyph unicode="X" horiz-adv-x="598" d="M568 571l-184 -232q-8 -10 0 -20l160 -221q6 -8 -1 -16l-61 -69q-7 -7 -12 0l-158 216q-7 10 -15 0l-177 -223q-7 -7 -14 -2l-74 56q-7 7 -2 14l199 247q9 11 1 21l-160 217q-5 9 2 15l71 61q7 6 13 -2l146 -201q8 -10 15 -1l172 214q5 7 13 1l65 -61q7 -7 1 -14z" />
<glyph unicode="Y" horiz-adv-x="566" d="M533 591l-190 -298q-6 -10 -5 -19l12 -257q-2 -5 -10 -10l-91 1q-10 0 -10 9l-11 265q0 9 -5 16l-190 303q-5 8 3 15l55 47q8 7 13 -2l172 -274q2 -4 7 -3q5 0 7 4l145 251q5 9 14 4l80 -40q9 -4 4 -12z" />
<glyph unicode="Z" horiz-adv-x="548" d="M519 132l-8 -109q-1 -10 -11 -10h-427q-10 0 -13 10l-20 90q-3 10 3 18l277 371q2 4 0 7q-2 4 -6 4l-275 -12q-5 2 -10 10l2 111q0 10 10 10l379 12q11 0 11 -10l4 -122q0 -9 -4 -15l-245 -360q-2 -3 0 -7q2 -3 6 -3l317 15q5 0 7.5 -3t2.5 -7z" />
<glyph unicode="[" horiz-adv-x="325" d="M294 16q0 -10 -10 -10l-224 -3q-9 0 -11 9l-18 619q0 11 9 11l228 21q10 0 10 -9l-3 -64q0 -10 -10 -11l-129 -17q-13 0 -12 -14l18 -443q2 -13 14 -12l128 9q10 1 10 -10v-76z" />
<glyph unicode="\" horiz-adv-x="357" d="M322 43q3 -9 -6 -13l-69 -33q-10 -5 -12 5l-200 621q-2 10 7 12l74 20q10 4 12 -7z" />
<glyph unicode="]" horiz-adv-x="339" d="M302 649l-6 -620q0 -11 -10 -11l-204 -22q-9 0 -11 9l-6 81q-1 9 9 11l119 11q13 0 13 14l6 398q0 5 -3.5 9t-8.5 4l-142 -6q-10 0 -11 10l-10 80q-1 10 8 11l248 29q5 -1 9 -8z" />
<glyph unicode="^" horiz-adv-x="467" d="M436 289q3 -9 -6 -14l-59 -30q-10 -4 -12 5l-109 313q-1 3 -4 3q-4 0 -5 -3l-129 -307q-4 -8 -13 -5l-62 22q-10 3 -6 12l166 384q4 10 14 10l70 11q10 0 13 -8z" />
<glyph unicode="_" horiz-adv-x="499" d="M466 17q1 -10 -9 -10l-414 -3q-10 0 -10 10v67q0 10 10 10l405 3q10 0 10 -10z" />
<glyph unicode="`" horiz-adv-x="238" d="M206 518q-14 -59 -75 -59q-46 0 -76 30q-26 26 -26 85q0 106 84 203q5 9 14 3l19 -12q9 -5 3 -14q-28 -43 -28 -86q0 -23 8 -44q5 -11 17 -15q63 -18 63 -69q0 -11 -3 -22z" />
<glyph unicode="a" horiz-adv-x="560" d="M527 75l-26 -56q-4 -8 -14 -7q-90 12 -120 73q-5 10 -12 1q-77 -92 -173 -92q-41 0 -83 20q-66 31 -66 131q0 118 78 232q84 122 187 122q32 0 62 -13q68 -28 68 -118q0 -22 -5 -69.5t-5 -70.5q0 -113 104 -141q9 -4 5 -12zM315 180q34 70 34 127q0 72 -53 99 q-11 6 -23 6q-49 0 -119 -123q-36 -64 -36 -136q0 -57 24 -67q19 -8 40 -8q84 0 133 102z" />
<glyph unicode="b" horiz-adv-x="455" d="M381 413q44 -73 44 -164q0 -74 -28.5 -135.5t-73.5 -82.5q-36 -17 -82 -17q-43 0 -89 14q-12 4 -12 -9v-8q0 -11 -10 -10l-91 6q-10 1 -10 10l9 626q0 9 10 10l73 4q10 1 10 -9l2 -187q2 -13 12 -7q61 29 114 29q80 0 122 -70zM330 239q4 141 -106 141q-37 0 -77 -16 q-12 -5 -12 -18l3 -206q0 -12 13 -16q37 -11 68 -11q108 0 111 126z" />
<glyph unicode="c" horiz-adv-x="426" d="M397 409l-39 -68q-4 -8 -12 -2q-50 48 -101 48q-56 0 -99 -65q-32 -49 -32 -100q0 -54 34.5 -90t90.5 -36q50 0 105 30q9 4 13 -5l32 -80q4 -10 -5 -12q-78 -31 -152 -31q-173 0 -198 183q-5 37 -5 71q0 176 112 229t253 -57q8 -6 3 -15z" />
<glyph unicode="d" horiz-adv-x="470" d="M436 647l-19 -638q0 -10 -10 -10h-72q-10 0 -10 10v12q0 13 -11 9q-50 -18 -95 -18q-81 0 -130 59q-55 67 -55 162q0 64 25.5 124.5t68.5 99.5q48 44 123 44q29 0 62 -7q13 -3 13 10v148q0 9 10 9l91 -4q11 0 9 -10zM326 389q0 12 -13 13q-95 6 -145 -52 q-42 -49 -42 -124q0 -52 20 -85.5t62 -33.5q45 0 106 35q12 7 12 19v228z" />
<glyph unicode="e" horiz-adv-x="467" d="M436 278q1 -10 -8 -12l-259 -67q-13 -3 -6 -15q52 -94 230 -85q4 1 6 -2t1 -6l-18 -80q-2 -9 -12 -9q-172 8 -262 88q-77 69 -77 170q0 85 51.5 153.5t129.5 81.5q18 3 35 3q97 0 149 -93q30 -55 40 -127zM321 331q-26 83 -82 83q-32 0 -57 -31q-27 -34 -34 -89 q-1 -5 3 -8t8 -2l153 32q13 3 9 15z" />
<glyph unicode="f" horiz-adv-x="490" d="M458 632l-49 -70q-5 -8 -13 -1q-41 36 -76 36q-27 0 -44 -24t-14 -87q2 -12 14 -11q102 11 156 21q9 0 10 -9l6 -80q2 -10 -9 -12q-83 -16 -149 -23q-12 0 -10 -14q22 -130 22 -198q0 -117 -50 -183q-7 -7 -15 -3l-60 33q-10 5 -4 13q36 66 36 187q0 68 -13 145 q-4 12 -15 12q-23 -1 -129 -1q-10 2 -11 11l-9 76q-1 10 9 10q45 0 122 5q13 1 12 13q-2 24 -2 46q0 89 38 136q34 43 94 43q71 0 151 -57q8 -6 2 -14z" />
<glyph unicode="g" horiz-adv-x="470" d="M328 -134q-54 -31 -121 -31q-70 0 -135 30q-9 4 -6 13l27 69q4 9 12 5q49 -23 92 -23q25 0 46 8q86 34 86 145q0 18 -2 35q-2 13 -13 6q-64 -38 -123 -38q-69 0 -112 50.5t-43 129.5q0 27 5 55q35 183 178 183q28 0 59 -8q75 -19 118 -120q39 -91 39 -214 q0 -101 -27 -181q-29 -85 -80 -114zM313 298q-18 88 -80 104q-8 2 -16 2q-38 0 -66 -44.5t-28 -92.5q0 -38 22 -64.5t61 -26.5q17 0 32 6q77 29 77 95q0 10 -2 21z" />
<glyph unicode="h" horiz-adv-x="531" d="M502 81l-27 -68q-4 -10 -13 -6q-37 10 -70 35q-50 38 -66 97l-28 134q-21 69 -75 69q-25 0 -58 -13q-12 -4 -11 -17q10 -184 -5 -308q-1 -10 -11 -8l-67 7q-10 1 -10 11q4 98 4 189q0 277 -36 428q-2 8 7 12l64 18q9 3 11 -7q19 -103 32 -214q0 -13 13 -7q60 28 107 28 q73 0 96 -68q13 -39 33 -128q15 -72 32 -103q25 -47 73 -68q9 -4 5 -13z" />
<glyph unicode="i" horiz-adv-x="182" d="M148 541q4 -10 -4 -15l-53 -35q-8 -5 -12 4l-45 115q-4 10 5 15l51 30q8 6 12 -3zM136 418l-1 -410q-2 -10 -10 -10l-67 1q-11 0 -9 10l9 409q0 10 10 10h58q10 0 10 -10z" />
<glyph unicode="j" horiz-adv-x="377" d="M323 548q6 -9 -3 -14l-49 -38q-8 -7 -14 2l-59 90q-5 7 3 13l53 37q8 6 14 -3zM324 431q17 -141 17 -281q0 -144 -23 -213q-39 -119 -138 -119q-48 0 -137 29q-9 3 -7 13l24 82q2 9 11 4q47 -28 86 -28q54 0 74 57q27 75 27 214q0 105 -15 228q-1 9 8 11l63 11 q10 2 10 -8z" />
<glyph unicode="k" horiz-adv-x="473" d="M443 80q5 -9 -1 -14l-73 -61q-7 -6 -13 2l-163 232q-8 11 -18 3l-32 -25q-10 -8 -10 -21l7 -186q0 -10 -9 -10l-87 -4q-10 0 -10 9l-4 639q0 9 10 10l67 4q10 2 10 -9l11 -295q1 -14 11 -6l186 134q8 6 15 -2l54 -58q7 -7 -1 -13l-123 -95q-11 -8 -2 -17z" />
<glyph unicode="l" horiz-adv-x="188" d="M145 4q0 -10 -10 -10h-72q-10 0 -10 10l-10 649q0 4 3 7t7 3l67 -4q10 -1 10 -11z" />
<glyph unicode="m" horiz-adv-x="772" d="M742 68l-7 -60q-1 -10 -11 -10q-48 -1 -88 18q-65 32 -81 110q-12 82 -24 163q-11 58 -47 58q-45 0 -63 -68q-21 -76 -18 -265q0 -9 -9 -10l-79 -5q-5 3 -9 10q6 57 6 118q0 235 -89 235q-39 0 -93 -47q-10 -9 -9 -22l5 -280q0 -10 -10 -10h-76q-10 0 -10 10v471 q0 9 10 10l67 4q10 1 10 -9l1 -67q0 -4 3 -5q4 -2 7 1q66 61 129 61q10 0 19 -2q46 -8 81 -84q6 -10 14 -2q76 82 139 82q59 0 89 -86q19 -55 28 -145q8 -80 21 -107q22 -44 86 -56q9 -2 8 -11z" />
<glyph unicode="n" horiz-adv-x="580" d="M550 91l-22 -79q-2 -9 -12 -7q-44 16 -78 49q-56 54 -65 139q-17 167 -117 167q-63 0 -124 -72v0q-1 2 -1 0l-3 -281q0 -10 -10 -9l-73 4q-10 2 -10 11l-5 472q0 9 10 9h84q9 0 9 -9v-58q0 -11 10 -5q83 63 156 63q55 0 95 -41q33 -34 48 -116q23 -127 26 -135 q22 -70 75 -90q9 -3 7 -12z" />
<glyph unicode="o" horiz-adv-x="444" d="M410 269q3 -24 3 -46q0 -110 -76 -174q-61 -52 -130 -52q-66 0 -112 47q-53 56 -63 165q-2 19 -2 38q0 109 50 181q51 76 132 72q85 -4 125 -43q54 -51 73 -188zM327 251q-20 144 -97 152q-66 7 -102 -56q-31 -53 -27 -119q3 -53 38 -91q32 -36 73 -43q39 -7 76 30 q41 41 41 103q0 12 -2 24z" />
<glyph unicode="p" horiz-adv-x="453" d="M359 111q-70 -92 -203 -82q-5 0 -9 -3.5t-3 -8.5l9 -176q0 -9 -9 -11l-73 -6q-10 -2 -10 9l-28 637q0 10 10 12l68 10q10 1 10 -8l2 -39q1 -13 11 -6q71 49 131 49q41 0 73 -23q82 -58 82 -174q0 -101 -61 -180zM332 314q-11 79 -78 79q-47 0 -115 -39q-12 -5 -11 -19 l10 -204q1 -12 14 -12q72 2 119 32q64 40 64 126q0 18 -3 37z" />
<glyph unicode="q" horiz-adv-x="458" d="M422 480l-9 -637q0 -10 -10 -10l-67 -3q-5 2 -9 10l2 193q0 5 -4 7q-3 2 -8 0q-58 -27 -108 -27q-85 0 -136 78q-37 58 -37 144q0 84 35 157.5t92 96.5q33 13 67 13q49 0 92 -26q11 -7 11 7q0 10 10 10l69 -3q10 0 10 -10zM332 351q0 12 -10 21q-55 48 -99 48 q-31 0 -54 -23q-19 -18 -33 -59t-14 -85q0 -71 37 -114q28 -33 74 -33q39 0 85 23q12 6 12 19z" />
<glyph unicode="r" horiz-adv-x="421" d="M388 429l-24 -80q-2 -9 -12 -5q-46 19 -91 19q-86 0 -132 -73q-7 -8 -5 -18l12 -258q1 -9 -9 -11l-66 -4q-10 -1 -10 10l-18 471q0 10 9 10l61 6q10 0 10 -9l4 -76q0 -4 3 -5q4 -1 6 2q50 62 132 62q55 0 124 -28q9 -4 6 -13z" />
<glyph unicode="s" horiz-adv-x="400" d="M366 466l-15 -74q-2 -9 -11 -4q-53 30 -94 30q-58 0 -69 -66q-1 -8 -1 -15q0 -41 49 -72q45 -27 91 -53q48 -37 48 -92q0 -15 -3 -32q-17 -83 -148 -83q-85 0 -174 32q-9 2 -5 12l29 77q3 9 12 5q82 -40 126 -40q38 0 47 29q2 6 2 12q0 26 -47 55q-72 44 -86 57 q-46 42 -46 101q0 20 5 43q26 114 156 114q61 0 127 -23q11 -4 7 -13z" />
<glyph unicode="t" horiz-adv-x="511" d="M478 45q2 -10 -7 -14q-60 -29 -120 -29q-89 0 -151 68q-70 77 -64 321q1 5 -3 9t-9 3l-78 -2q-10 0 -10 9l-3 69q0 10 10 10l87 3q13 0 13 13q9 89 19 145q2 11 11 9l79 -1q10 -2 8 -10q-11 -55 -20 -140q-1 -5 2.5 -9t8.5 -4l131 4q10 0 10 -10l1 -67q0 -10 -10 -10 l-138 -5q-13 0 -13 -13q-6 -227 81 -259q37 -14 72 -14q39 0 66 15q9 4 11 -5z" />
<glyph unicode="u" horiz-adv-x="592" d="M559 43q4 -9 -4 -14l-56 -35q-9 -5 -15 3q-57 77 -76 199q-1 4 -5 4t-5 -4q-16 -74 -50 -125q-52 -75 -134 -75q-14 0 -29 2q-152 23 -152 266q0 83 20 220q1 10 11 9l85 -7q11 -1 7 -10q-25 -121 -25 -214q0 -152 72 -164q74 -13 129 150q30 88 48 210q2 10 11 11l63 7 q10 0 10 -9q3 -85 19 -183q27 -158 76 -241z" />
<glyph unicode="v" horiz-adv-x="508" d="M475 475l-141 -466q-3 -10 -13 -10l-113 -2q-10 0 -13 9l-162 478q-3 10 6 12l82 20q10 2 13 -8l122 -373q1 -4 5 -4t5 4l113 359q2 9 12 7l77 -15q10 -2 7 -11z" />
<glyph unicode="w" horiz-adv-x="647" d="M614 517l-98 -503q-2 -9 -12 -9l-79 8q-9 1 -13 11l-98 265q-1 3 -5 3q-3 0 -5 -3l-102 -270q-5 -10 -14 -10l-67 -2q-9 0 -11 10l-77 457q-2 10 8 12l75 16q9 2 11 -8l48 -293q1 -4 5 -4t5 4l75 256q3 10 13 10l67 6q10 1 13 -8l80 -242q1 -4 5 -4t5 4l62 311q2 9 12 9 l89 -15q10 -2 8 -11z" />
<glyph unicode="x" horiz-adv-x="543" d="M513 73q7 -7 0 -13l-61 -55q-7 -6 -14 1l-162 165q-9 9 -18 0l-158 -163q-7 -7 -14 0l-56 54q-7 7 0 14l158 167q8 9 -1 18l-152 155q-6 6 -1 15l51 62q6 7 13 0l158 -160q9 -9 18 1l155 164q6 8 14 0l60 -61q7 -7 0 -14l-157 -162q-9 -9 0 -18z" />
<glyph unicode="y" horiz-adv-x="598" d="M568 460q-75 -285 -195 -485q-70 -118 -135 -178q-8 -7 -15 -1l-69 55q-8 8 -1 13q64 64 126 174q6 11 -3 19q-79 66 -138 148q-89 121 -108 246q0 10 8 13l78 23q10 2 13 -7q70 -209 196 -324q10 -9 15 3q75 169 117 332q2 9 12 7l92 -26q9 -4 7 -12z" />
<glyph unicode="z" horiz-adv-x="514" d="M480 1q0 -9 -10 -9l-426 7q-10 0 -9 10l8 78q0 7 6 14l261 289q2 2 1 6q-2 3 -5 3l-260 2q-10 0 -10 10l-2 82q0 10 10 10l397 5q4 0 7 -3t3 -7l-2 -87q0 -9 -6 -16l-254 -288q-2 -2 0 -6q1 -3 5 -3l276 7q10 0 10 -10v-94z" />
<glyph unicode="{" horiz-adv-x="432" d="M397 -26q7 -7 0 -14q-24 -16 -47 -33q-55 -32 -102 -32t-81 35q-46 48 -46 157q0 71 18 151q4 11 -10 13l-84 4q-10 0 -10 10l1 67q0 9 10 9l101 -10q13 0 15.5 13t2.5 27q0 62 -33 142q-21 51 -21 96q0 69 41 106q30 27 75 27q46 0 102 -29q9 -5 4 -14l-20 -43 q-4 -8 -13 -2q-20 20 -53 20q-37 0 -51 -54q-4 -16 -4 -32q0 -34 25.5 -105t25.5 -115q0 -49 -20 -102q-5 -12 -13 -52q-12 -59 -12 -107q0 -96 49 -125q23 -13 44 -8q26 7 46 38q6 10 13 4z" />
<glyph unicode="|" horiz-adv-x="229" d="M168 13q2 -9 -9 -10l-78 -6q-10 -2 -10 9l-10 648q-2 10 9 10h79q10 0 10 -10z" />
<glyph unicode="}" horiz-adv-x="351" d="M317 288q0 -9 -10 -10l-76 -5q-12 -1 -14 -13q-1 -6 -1 -17q0 -37 26 -96t26 -99v-18q-3 -49 -38 -80q-49 -43 -133 -38q-9 1 -10 10l-4 64q-1 10 10 10q65 0 82 29q7 12 7 28q0 34 -30 91q-23 44 -23 88q0 32 12 63q4 12 -4 21q-37 41 -37 83q0 17 7 35l9 23 q43 110 43 156q0 16 -3 27t-12 14q-3 1 -7 1q-26 0 -62 -29q-9 -7 -14 2l-27 48q-5 9 2 16q48 47 102 46q37 0 68 -27q36 -32 36 -91q0 -62 -55 -190l-3 -7q-5 -12 -5 -23q0 -6 2 -14q6 -15 17 -22.5t23 -6.5l85 7q10 1 10 -9z" />
<glyph unicode="~" horiz-adv-x="705" d="M672 282q3 -9 -6 -13q-108 -49 -183 -49q-52 0 -95 25q-21 12 -67 51q-38 33 -66 43q-15 5 -29 5q-65 0 -110 -98q-4 -8 -13 -5l-65 22q-9 3 -5 12q79 176 190 176q86 0 173 -99q29 -33 86 -33q68 0 156 42q8 4 12 -5z" />
<glyph unicode="&#xa5;" horiz-adv-x="575" d="M543 594l-140 -219q0 -4 4 -7l103 7q8 1 8 -7l7 -77q0 -6 -7 -8l-162 -8q-8 0 -8 -9l2 -39q0 -8 9 -8l153 6q6 0 8 -7l4 -77q2 -8 -7 -8l-154 -4q-8 0 -8 -9l5 -105q0 -10 -10 -10h-90q-10 0 -10 10l-5 102q0 8 -8 8l-198 -5q-4 2 -7 7l3 71q2 8 8 8l190 8q8 0 8 8l-1 39 q-2 8 -9 8l-190 -10q-4 2 -8 7l2 71q0 8 7 8l150 10q8 1 4 7l-152 243q-5 9 2 15l55 47q8 7 13 -2l173 -274q7 -11 13 0l146 252q3 9 13 4l80 -40q9 -5 4 -13z" />
<glyph unicode="&#xa9;" horiz-adv-x="741" d="M698 334q0 -139 -89.5 -237t-213.5 -98q-167 0 -261 91q-91 88 -91 235t89.5 243t240.5 96q135 0 230 -95.5t95 -234.5zM642 334q0 115 -79 194t-191 79q-124 0 -198.5 -79.5t-74.5 -201.5t76 -194q78 -75 216 -75q103 0 177 81t74 196zM499 449l-30 -52q-4 -7 -10 -1 q-51 49 -96 49q-41 0 -71 -44q-24 -35 -24 -75q0 -46 32 -79t81 -33q37 0 77 20q6 3 10 -3l25 -61q3 -7 -4 -10q-62 -23 -119 -23q-137 0 -156 139q-4 28 -4 54q0 86 40 136t105 50q68 0 142 -56q7 -5 2 -11z" />
<glyph unicode="&#xab;" horiz-adv-x="537" d="M505 179l-20 -66q-2 -10 -10 -3l-180 161q-7 6 -7 16l-1 55q-1 8 6 17l146 152q6 8 11 -2l31 -65q2 -3 2 -6q0 -6 -5 -10l-105 -108q-9 -9 1 -17l126 -108q8 -7 5 -16zM294 109l-34 -49q-5 -8 -13 -1l-191 163q-6 5 -8 13l-16 74q-2 9 4 18l192 276q5 10 12 1l34 -31 q8 -7 3 -16l-148 -250q-7 -11 2 -20l162 -163q8 -8 1 -15z" />
<glyph unicode="&#xad;" d="M462 299q0 -10 -10 -10l-407 -16q-10 0 -11 10l-4 73q-2 10 9 10l413 16q10 0 10 -9v-74z" />
<glyph unicode="&#xae;" horiz-adv-x="747" d="M701 331q0 -140 -89 -237.5t-214 -97.5q-167 0 -261 91q-91 88 -91 235t89.5 243t240.5 96q135 0 230 -95.5t95 -234.5zM645 330q0 115 -79 194t-191 79q-124 0 -198.5 -79t-74.5 -201t76 -194q78 -75 216 -75q103 0 177 80.5t74 195.5zM525 161q2 -6 -3 -8l-49 -23 q-5 -3 -7 3l-64 157q-3 8 -11 6q-42 -8 -83 -8q-7 0 -7 -8l3 -146q0 -6 -5 -6l-45 -4q-6 0 -6 6l-5 369q0 7 6 8q62 15 121 15q142 0 154 -93q1 -8 1 -16q0 -62 -64 -94q-7 -3 -3 -11zM377 462q-32 0 -73 -10q-7 -2 -7 -10l2 -86q0 -9 8 -8q147 10 147 62t-77 52z" />
<glyph unicode="&#xbb;" horiz-adv-x="542" d="M507 309l-16 -74q-2 -8 -8 -13l-190 -163q-8 -7 -13 1l-35 49q-6 8 1 15l162 163q10 8 3 20l-148 250q-5 9 2 16l34 31q8 7 13 -1l192 -276q5 -11 3 -18zM253 342l-1 -55q0 -9 -8 -16l-180 -161q-7 -6 -10 3l-19 66q-3 10 4 16l126 108q11 7 1 17l-105 108q-7 7 -3 16 l32 65q4 9 11 2l145 -152q7 -8 7 -17z" />
<glyph unicode="&#x2000;" horiz-adv-x="391" />
<glyph unicode="&#x2001;" horiz-adv-x="782" />
<glyph unicode="&#x2002;" horiz-adv-x="391" />
<glyph unicode="&#x2003;" horiz-adv-x="782" />
<glyph unicode="&#x2004;" horiz-adv-x="260" />
<glyph unicode="&#x2005;" horiz-adv-x="195" />
<glyph unicode="&#x2006;" horiz-adv-x="130" />
<glyph unicode="&#x2007;" horiz-adv-x="130" />
<glyph unicode="&#x2008;" horiz-adv-x="97" />
<glyph unicode="&#x2009;" horiz-adv-x="156" />
<glyph unicode="&#x200a;" horiz-adv-x="43" />
<glyph unicode="&#x2010;" d="M462 299q0 -10 -10 -10l-407 -16q-10 0 -11 10l-4 73q-2 10 9 10l413 16q10 0 10 -9v-74z" />
<glyph unicode="&#x2011;" d="M462 299q0 -10 -10 -10l-407 -16q-10 0 -11 10l-4 73q-2 10 9 10l413 16q10 0 10 -9v-74z" />
<glyph unicode="&#x2012;" d="M462 299q0 -10 -10 -10l-407 -16q-10 0 -11 10l-4 73q-2 10 9 10l413 16q10 0 10 -9v-74z" />
<glyph unicode="&#x2013;" horiz-adv-x="558" d="M529 299q0 -10 -12 -10l-470 -16q-12 0 -13 10l-5 73q-2 10 11 10l477 16q12 0 12 -9v-74z" />
<glyph unicode="&#x2014;" horiz-adv-x="1059" d="M1029 299q0 -10 -23 -10l-942 -16q-23 0 -25 10l-9 73q-5 10 21 10l955 16q23 0 23 -9v-74z" />
<glyph unicode="&#x202f;" horiz-adv-x="156" />
<glyph unicode="&#x205f;" horiz-adv-x="195" />
<glyph unicode="&#x25fc;" horiz-adv-x="500" d="M0 500h500v-500h-500v500z" />
</font>
</defs>
</svg>
